<svg width="30" height="30" viewBox="0 0 30 30" fill="none" xmlns="http://www.w3.org/2000/svg">
<g clip-path="url(#clip0_14_39)">
<path d="M5.60447 26.1779L5.61363 26.1569C5.7693 25.8197 6.05322 25.5633 6.45792 25.3937L7.74125 24.8028L7.80929 24.7455C7.76038 24.6893 7.71263 24.6316 7.66642 24.5719C7.08625 23.8182 6.7675 22.8168 6.7407 21.6737L6.56293 21.5925L5.9014 21.0339L4.83839 22.0916H4.83765L4.71553 22.0915H4.71479L3.65185 21.0339L2.99018 21.5925L1.61322 22.2263C1.40945 22.3102 1.20926 22.437 1.10735 22.6575C1.10735 22.6575 -0.389383 26.221 0.422502 26.221H5.58649C5.59659 26.1971 5.60279 26.1822 5.60447 26.1779Z" fill="black"/>
<path d="M2.29321 17.805C2.31706 20.0058 3.54711 21.3173 4.77649 21.3173C5.82683 21.3173 7.23579 20.0058 7.25983 17.805C7.27506 16.2782 6.54784 15.364 4.77649 15.364C3.00507 15.3639 2.27772 16.2782 2.29321 17.805Z" fill="black"/>
<path d="M13.3189 25.3937C13.7355 25.568 14.0305 25.8389 14.1727 26.1794C14.1743 26.1828 14.1801 26.1973 14.1903 26.221H15.8098C15.8199 26.1971 15.8261 26.1823 15.8279 26.1779L15.8374 26.1569C15.9927 25.8197 16.2768 25.5633 16.6811 25.3937L17.9648 24.8028L18.0328 24.7455C17.9837 24.6893 17.936 24.6316 17.8898 24.5719C17.3097 23.8182 16.9909 22.8168 16.9644 21.6737L16.7868 21.5925L16.1252 21.0339L15.0618 22.0916H15.0614L14.9389 22.0915H14.9385L13.8753 21.0339L13.2137 21.5925L13.0358 21.6739C13.0073 22.7849 12.6536 23.8154 12.0341 24.5841C11.999 24.6276 11.9632 24.6694 11.9268 24.7111L12.0357 24.8028L13.3189 25.3937Z" fill="black"/>
<path d="M15 21.3174C16.0503 21.3174 17.4595 20.0058 17.4833 17.805C17.4987 16.2782 16.7713 15.364 15 15.364C13.2286 15.364 12.5015 16.2782 12.5168 17.805C12.5405 20.0058 13.7707 21.3174 15 21.3174Z" fill="black"/>
<path d="M28.8933 22.6575C28.8045 22.4461 28.5912 22.3102 28.3874 22.2263L27.0104 21.5925L26.3488 21.0339L25.2859 22.0916H25.285L25.163 22.0915H25.1622L24.0993 21.0339L23.4377 21.5925L23.2598 21.6739C23.2312 22.7849 22.8775 23.8154 22.2576 24.5841C22.2226 24.6276 22.1868 24.6694 22.1504 24.7111L22.2594 24.8028L23.5428 25.3937C23.9595 25.568 24.2544 25.8389 24.3966 26.1794C24.3981 26.1828 24.4043 26.1973 24.4142 26.221H29.5783C30.3899 26.221 28.8933 22.6575 28.8933 22.6575Z" fill="black"/>
<path d="M22.7405 17.805C22.7643 20.0058 23.9944 21.3173 25.2238 21.3173C26.2741 21.3173 27.6832 20.0058 27.707 17.805C27.7224 16.2782 26.995 15.364 25.2238 15.364C23.4523 15.3639 22.7249 16.2782 22.7405 17.805Z" fill="black"/>
<path d="M13.0518 26.0049L11.6749 25.3706L11.0133 24.8132L9.95034 25.8702H9.94946H9.82734H9.82666L8.76366 24.8132L8.10213 25.3706L6.72496 26.0049C6.52126 26.0881 6.321 26.2149 6.21922 26.4364C6.21922 26.4364 4.72243 30 5.53431 30H14.2427C15.0545 30 13.5578 26.4364 13.5578 26.4364C13.469 26.2239 13.2557 26.0881 13.0518 26.0049Z" fill="black"/>
<path d="M9.88823 19.1431C8.11688 19.1431 7.38967 20.0566 7.40502 21.5835C7.429 23.7837 8.65912 25.0963 9.88823 25.0963C10.9386 25.0963 12.3479 23.7837 12.3715 21.5835C12.3872 20.0565 11.6596 19.1431 9.88823 19.1431Z" fill="black"/>
<path d="M23.2755 26.0049L21.8983 25.3706L21.2368 24.8132L20.1738 25.8702H20.1732H20.0509H20.0502L18.9874 24.8132L18.3256 25.3706L16.9489 26.0049C16.745 26.0881 16.545 26.2149 16.4427 26.4364C16.4427 26.4364 14.9461 30 15.7579 30H24.4663C25.2782 30 23.7813 26.4364 23.7813 26.4364C23.6925 26.2239 23.4791 26.0881 23.2755 26.0049Z" fill="black"/>
<path d="M20.1123 25.0965C21.1626 25.0965 22.5716 23.7838 22.5956 21.5837C22.6108 20.0566 21.8837 19.1433 20.1123 19.1433C18.3409 19.1433 17.6133 20.0568 17.6292 21.5837C17.6527 23.7838 18.8827 25.0965 20.1123 25.0965Z" fill="black"/>
<path d="M14.14 9.47907C14.1757 9.49679 14.2143 9.50541 14.2528 9.50541C14.3076 9.50541 14.3623 9.48776 14.4075 9.45321L17.031 7.44791C17.0941 7.39975 17.1311 7.32492 17.1311 7.24557C17.1311 7.16615 17.094 7.09138 17.031 7.04308L14.4075 5.03792C14.3305 4.97912 14.2268 4.96901 14.1399 5.01199C14.053 5.0549 13.998 5.14341 13.998 5.24034V9.25066C13.9981 9.34759 14.053 9.43603 14.14 9.47907Z" fill="black"/>
<path d="M1.56111 14.4909H28.4391C28.6352 14.4909 28.7942 14.332 28.7942 14.1359V0.355052C28.7942 0.158969 28.6352 0 28.4391 0H1.56111C1.36502 0 1.20605 0.158969 1.20605 0.355052V14.1359C1.20605 14.332 1.36509 14.4909 1.56111 14.4909ZM15.0002 3.11565C17.281 3.11565 19.13 4.9646 19.13 7.24547C19.13 9.52633 17.2811 11.3752 15.0002 11.3752C12.7194 11.3752 10.8704 9.52633 10.8704 7.24547C10.8703 4.9646 12.7194 3.11565 15.0002 3.11565Z" fill="black"/>
</g>
<defs>
<clipPath id="clip0_14_39">
<rect width="30" height="30" fill="white"/>
</clipPath>
</defs>
</svg>
