<svg width="31" height="30" viewBox="0 0 31 30" fill="none" xmlns="http://www.w3.org/2000/svg">
<path d="M30.7056 16.8993L29.9798 15.5106L23.8957 18.7041L21.6963 16.4997L26.7817 12.7804L26.002 11.7089L20.7491 15.5502L18.438 13.2337L22.9085 8.75328L21.9728 7.8149L17.5024 12.2958L15.1918 9.97983L19.0241 4.71458L17.9551 3.933L14.2451 9.03031L12.0452 6.82584L15.2314 0.726916L13.8459 0L5.36108 16.2414L5.27732 16.1569L2.22992 19.2114C1.6699 19.7723 1.27257 20.4476 1.03851 21.1731C0.686956 22.2625 0.695666 23.4601 1.02074 24.6157C1.34676 25.7722 1.99112 26.8925 2.93303 27.8377C4.19037 29.0966 5.75742 29.8264 7.30903 29.9731C8.08487 30.046 8.85778 29.9717 9.58206 29.7366C10.3059 29.502 10.9796 29.1038 11.5392 28.5424L14.5866 25.4884L14.5018 25.4034L30.7056 16.8993ZM22.6673 19.3485L19.1056 21.2181L17.4769 19.585L20.6143 17.2907L22.6673 19.3485ZM19.667 16.3413L16.5301 18.636L14.7892 16.8916L17.5024 14.1716L19.667 16.3413ZM13.8535 17.8289L15.448 19.4272L11.9947 21.9527L10.8673 20.8226L13.8535 17.8289ZM9.93169 19.8848L8.80435 18.7548L11.3239 15.2933L12.9179 16.8915L9.93169 19.8848ZM14.4026 11.0645L16.5667 13.2337L13.8535 15.9532L12.1132 14.2093L14.4026 11.0645ZM11.4024 8.05725L13.4553 10.115L11.1664 13.2598L9.64607 11.7364L9.29743 12.0863L11.4024 8.05725ZM8.89443 12.8582L10.3771 14.3444L7.85753 17.8058L6.84144 16.7873L8.89443 12.8582ZM10.4335 27.4337C10.0544 27.8132 9.60468 28.0811 9.10002 28.2457C8.34488 28.4919 7.46119 28.4976 6.57224 28.2461C5.68371 27.9946 4.79528 27.4878 4.03921 26.729C3.02984 25.7187 2.46789 24.4709 2.35998 23.3052C2.30509 22.7226 2.36291 22.1617 2.52612 21.6563C2.69032 21.1504 2.95712 20.6996 3.33562 20.3197L5.9149 17.7344L13.0127 24.8489L10.4335 27.4337ZM12.942 22.9017L16.3948 20.3767L17.8776 21.8624L13.9576 23.9201L12.942 22.9017Z" fill="black"/>
</svg>
