<svg width="30" height="30" viewBox="0 0 30 30" fill="none" xmlns="http://www.w3.org/2000/svg">
<path fill-rule="evenodd" clip-rule="evenodd" d="M2.5 7.5C2.5 5.42894 4.17894 3.75 6.25 3.75H23.75C25.8211 3.75 27.5 5.42894 27.5 7.5V18.75C27.5 20.8211 25.8211 22.5 23.75 22.5H16.25V23.75H18.75C19.4404 23.75 20 24.3096 20 25C20 25.6904 19.4404 26.25 18.75 26.25H11.25C10.5597 26.25 10 25.6904 10 25C10 24.3096 10.5597 23.75 11.25 23.75H13.75V22.5H6.25C4.17894 22.5 2.5 20.8211 2.5 18.75V7.5ZM6.25 6.25C5.55965 6.25 5 6.80965 5 7.5V18.75C5 19.4404 5.55965 20 6.25 20H23.75C24.4404 20 25 19.4404 25 18.75V7.5C25 6.80965 24.4404 6.25 23.75 6.25H6.25Z" fill="black"/>
</svg>
